<svg width="20" height="21" viewBox="0 0 20 21" fill="none" xmlns="http://www.w3.org/2000/svg">
<g clip-path="url(#clip0_1_66)">
<g clip-path="url(#clip1_1_66)">
<path d="M17.9313 19.7786L16.9293 4.67836C16.9215 4.51886 16.8527 4.36846 16.737 4.25838C16.6213 4.1483 16.4677 4.08699 16.308 4.08717H13.6026V3.67635C13.6134 2.85135 13.2987 2.05532 12.7266 1.46077C12.1546 0.86621 11.3713 0.52102 10.5465 0.5L9.48438 0.5C8.65266 0.51056 7.8592 0.851088 7.27855 1.44667C6.6979 2.04226 6.37762 2.84411 6.38818 3.67583V4.08716H3.68277C3.52309 4.08698 3.36946 4.14829 3.25378 4.25837C3.1381 4.36845 3.06926 4.51885 3.06153 4.67835L2.05953 19.8286C2.05488 19.9146 2.06757 20.0005 2.09683 20.0814C2.12609 20.1623 2.17134 20.2365 2.22987 20.2996C2.28697 20.3625 2.35656 20.4128 2.4342 20.4473C2.51184 20.4818 2.59581 20.4998 2.68077 20.5H17.3201C17.4016 20.5 17.4824 20.484 17.5578 20.4527C17.6332 20.4215 17.7017 20.3758 17.7594 20.3181C17.8171 20.2604 17.8628 20.1919 17.8941 20.1166C17.9253 20.0412 17.9414 19.9604 17.9414 19.8788L17.9413 19.8687C17.9397 19.8385 17.9364 19.8084 17.9313 19.7786ZM7.62065 3.67635C7.61797 3.17846 7.81252 2.69977 8.16176 2.3449C8.51099 1.99003 8.98652 1.78786 9.48438 1.78257H10.5465C10.7926 1.78519 11.0357 1.83624 11.262 1.93282C11.4883 2.02939 11.6934 2.1696 11.8655 2.34543C12.0377 2.52127 12.1735 2.72928 12.2652 2.9576C12.357 3.18593 12.4028 3.43008 12.4002 3.67613V4.08713H7.62065V3.67635ZM3.36213 19.2274L4.26398 5.3497H6.38818C6.38818 5.3497 6.25792 8.516 7.00943 8.516C7.76094 8.516 7.63067 5.31961 7.63067 5.31961H12.4102C12.4102 5.31961 12.27 8.516 13.0215 8.516C13.7729 8.516 13.6427 5.31961 13.6427 5.31961H15.767L16.6588 19.1974L3.36213 19.2274Z" fill="black"/>
</g>
</g>
<defs>
<clipPath id="clip0_1_66">
<rect width="20" height="20" fill="white" transform="translate(0 0.5)"/>
</clipPath>
<clipPath id="clip1_1_66">
<rect width="20" height="20" fill="white" transform="translate(0 0.5)"/>
</clipPath>
</defs>
</svg>
