<svg width="61" height="11" viewBox="0 0 61 11" fill="none" xmlns="http://www.w3.org/2000/svg">
<g clip-path="url(#clip0_1_708)">
<g clip-path="url(#clip1_1_708)">
<path d="M42.464 2.278H41.598C39.85 2.278 38.5735 2.688 38.5735 4.497V5.743C38.5735 7.5365 39.85 7.962 41.598 7.962H42.464C43.3 7.962 44.029 7.8405 44.5615 7.5365V7.962H45.4885V4.497C45.4885 2.6885 44.212 2.278 42.464 2.278ZM44.5615 5.6825C44.5615 6.959 43.8165 7.2025 42.7375 7.2025H41.309C40.2455 7.2025 39.4855 6.959 39.4855 5.6825V4.5425C39.4855 3.266 40.2305 3.0225 41.309 3.0225H42.7375C43.8015 3.0225 44.5615 3.266 44.5615 4.5425V5.6825ZM34.82 2.263H34.698C33.5735 2.263 32.677 2.43 32.16 3.023C31.6435 2.43 30.7165 2.263 29.592 2.263H29.577C28.7255 2.263 28.011 2.4605 27.4945 2.8555V2.3085H26.628V7.9165H27.5555V4.5275C27.5555 3.251 28.3 3.0075 29.379 3.0075H29.8805C30.9445 3.0075 31.704 3.251 31.704 4.5275V7.901H32.6315V4.5275C32.6315 3.251 33.376 3.0075 34.455 3.0075H35.1085C36.1875 3.0075 36.932 3.251 36.932 4.5275V7.901H37.86V4.4665C37.845 2.673 36.568 2.263 34.82 2.263ZM12.2815 2.278H11.294C9.54602 2.278 8.26952 2.688 8.26952 4.497V5.6975C8.26952 7.491 9.54602 7.9165 11.294 7.9165H12.282C14.0295 7.9165 15.306 7.491 15.306 5.6975V4.497C15.306 2.6885 14.0295 2.278 12.2815 2.278ZM14.379 5.637C14.379 6.9135 13.634 7.157 12.5555 7.157H11.0205C9.94152 7.157 9.19652 6.9135 9.19652 5.637V4.5425C9.19652 3.266 9.94152 3.0225 11.0205 3.0225H12.5555C13.6345 3.0225 14.379 3.266 14.379 4.5425V5.637ZM4.60702 2.278H3.61902C1.88652 2.278 0.610016 2.688 0.610016 4.482V10.5H1.53702V7.4755C2.06902 7.7795 2.79852 7.901 3.63452 7.901H4.62202C6.37002 7.901 7.64652 7.476 7.64652 5.6825V4.482C7.63152 2.6885 6.35502 2.278 4.60702 2.278ZM6.71952 5.637C6.71952 6.9135 5.97452 7.157 4.89552 7.157H3.34552C2.26652 7.157 1.52202 6.9135 1.52202 5.637V4.5425C1.52202 3.266 2.26702 3.0225 3.34552 3.0225H4.88052C5.94452 3.0225 6.70402 3.266 6.70402 4.5425V5.637H6.71952ZM49.911 2.278H49.2725C48.4065 2.278 47.6615 2.4755 47.1145 2.901V2.4H46.2485V7.8865H47.1755V4.5425C47.1755 3.266 47.92 3.0225 48.999 3.0225H50.1995C51.2785 3.0225 52.0235 3.266 52.0235 4.5425V7.871H52.9505V4.497C52.935 2.6885 51.659 2.278 49.911 2.278ZM57.844 4.695H55.4125C54.5005 4.695 54.3485 4.436 54.3485 3.995V3.798C54.3485 3.175 54.622 3.053 55.8685 3.053H57.5095C58.224 3.053 58.7105 3.068 58.8925 3.418L59.683 3.023C59.47 2.582 58.923 2.293 57.5555 2.293H56.0965C53.9385 2.293 53.452 2.7795 53.452 3.6765V3.9955C53.452 5.029 53.908 5.4545 55.139 5.4545H57.9505C58.999 5.4545 59.136 5.743 59.136 6.275V6.3205C59.136 7.1415 58.7255 7.187 57.4035 7.187H55.4125C54.8805 7.187 54.531 7.0805 54.3485 6.8525L53.5585 7.2175C53.9535 7.9315 54.8805 7.9315 55.8685 7.9315H57.5855C58.6495 7.9315 60.002 7.871 60.002 6.3515V6.336C60.0475 4.831 59.166 4.6945 57.844 4.6945V4.695ZM19.1205 2.263C18.285 2.263 17.5555 2.3695 17.0235 2.658V2.263H16.0965V7.886H17.008V4.5425C17.008 3.266 17.753 3.0225 18.832 3.0225C18.832 3.0225 20.1995 3.038 20.382 3.3875L21.142 2.9925C20.8685 2.3085 19.1205 2.263 19.1205 2.263ZM25.139 7.172C25.504 7.172 25.99 7.111 25.99 7.111V7.901C25.975 7.901 25.671 7.962 25.291 7.962C24.7895 7.962 22.312 8.038 22.312 6.108V3.053L22.297 3.023H21.628V2.278H22.297V0.5H23.2545V2.278H25.6405V3.023H23.2545V5.8495C23.2545 6.716 23.6795 7.172 25.139 7.172Z" fill="black"/>
</g>
</g>
<defs>
<clipPath id="clip0_1_708">
<rect width="59.5" height="10" fill="white" transform="translate(0.610016 0.5)"/>
</clipPath>
<clipPath id="clip1_1_708">
<rect width="59.5" height="10" fill="white" transform="translate(0.610016 0.5)"/>
</clipPath>
</defs>
</svg>
