<svg width="55" height="9" viewBox="0 0 55 9" fill="none" xmlns="http://www.w3.org/2000/svg">
<g clip-path="url(#clip0_1_716)">
<g clip-path="url(#clip1_1_716)">
<path d="M39.0533 0.97057H38.1056V5.28055C38.1056 6.42528 37.1579 6.8188 35.7451 6.8188C34.3143 6.8188 33.3845 6.40738 33.3845 5.28055V0.97057H32.4364V5.4775C32.4185 7.1586 34.2245 7.67706 35.7447 7.67706C37.2645 7.67706 39.0529 7.1586 39.0529 5.4775L39.0533 0.97057ZM42.5052 0.97057H41.575V1.39913C41.575 1.45284 41.5929 1.50656 41.5929 1.57817V6.97917C41.5929 7.05079 41.5929 7.1045 41.575 7.15822V7.58754H42.5052V0.97057ZM53.8968 6.72927H48.9967V4.61885H52.8775V3.77849H49.0146V1.81055H53.7178C53.7715 1.81055 53.8073 1.81055 53.861 1.82845H54.2903V0.97057H47.9953V7.57001H54.4153V6.72927H53.8968ZM4.23459 0.97057V5.4775C4.23459 6.53271 3.85901 6.8367 2.71474 6.8367C2.14222 6.8367 1.60589 6.72927 1.30154 6.53271L0.729408 6.28205L0.44334 7.01536L1.1408 7.33726C1.24821 7.37307 1.35525 7.40887 1.48057 7.44468C1.88221 7.58822 2.30575 7.66079 2.73226 7.65915C4.12717 7.65915 5.16441 7.24774 5.16441 5.76359V0.97057H4.23459ZM12.4429 6.89041C12.4787 6.96165 12.5146 7.03327 12.5325 7.12279L12.7473 7.58754H13.7308L10.6012 0.97057H9.31372L6.434 7.57001H7.29258L7.47161 7.1765C7.48952 7.12279 7.52494 7.05117 7.56113 6.97955L8.15117 5.63864H8.16907L8.18697 5.62035H11.835L12.4429 6.89041ZM8.52675 4.77999L9.93956 1.63227L11.4415 4.77999H8.52675ZM21.6352 6.44281L21.0448 5.65616L20.3831 6.10339C19.99 6.40738 19.2568 6.72927 18.2374 6.72927C16.6814 6.72927 15.6083 5.67406 15.6083 4.27905C15.6083 2.88404 16.6456 1.70388 18.3624 1.70388C19.1135 1.70388 19.9005 2.00788 20.3119 2.25815L20.9019 2.58005L21.3312 1.68598L20.7229 1.36408C20.598 1.31037 20.4372 1.25666 20.2761 1.18504C19.6678 0.97057 19.1851 0.863144 18.3448 0.863144C16.3058 0.881048 14.6248 2.15073 14.6248 4.29696C14.6248 6.46071 16.2521 7.67706 18.2911 7.67706C19.8826 7.67706 20.7229 6.99746 21.1701 6.76508L21.6348 6.44319L21.6352 6.44281ZM28.9495 8.14219L29.3426 8.49989L30.0759 7.8561L29.5754 7.40887C29.468 7.31935 29.3072 7.1944 29.0745 6.99746C30.0047 6.37157 30.541 5.38798 30.541 4.27905C30.541 2.41929 29.0745 0.881048 26.7497 0.881048C24.425 0.881048 22.9585 2.41929 22.9585 4.27905C22.9585 6.13919 24.425 7.67706 26.7497 7.67706C27.2682 7.67706 27.7516 7.60582 28.1626 7.44468C28.6098 7.82029 28.8242 8.01686 28.9495 8.14219ZM26.7497 6.8367C25.033 6.8367 23.9599 5.69197 23.9599 4.26153C23.9599 2.84823 25.0509 1.72179 26.7497 1.72179C28.4665 1.72179 29.5396 2.84823 29.5396 4.26115C29.5396 5.08398 29.1819 5.79939 28.5378 6.26452C28.2066 6.50576 27.8293 6.67616 27.4293 6.76508C27.2327 6.80089 27.0179 6.8367 26.7497 6.8367ZM45.6702 3.70688H44.6867V4.69047H45.6702V3.70688Z" fill="black"/>
</g>
</g>
<defs>
<clipPath id="clip0_1_716">
<rect width="54.09" height="8" fill="white" transform="translate(0.44334 0.5)"/>
</clipPath>
<clipPath id="clip1_1_716">
<rect width="54.09" height="7.99979" fill="white" transform="translate(0.44334 0.5)"/>
</clipPath>
</defs>
</svg>
