<svg width="62" height="29" viewBox="0 0 62 29" fill="none" xmlns="http://www.w3.org/2000/svg">
<g clip-path="url(#clip0_1_728)">
<g clip-path="url(#clip1_1_728)">
<path d="M58.1697 12.9742H55.2582V27.9799H58.1697V12.9742Z" fill="black"/>
<path d="M53.3408 10.2727H49.702V0.502167H46.7909V10.2727H40.9688V0.502167H38.0437V10.2727H34.7408V13.1842H38.0437V27.9799H40.9688V13.1842H46.7909V27.9799H49.702V13.1842H53.3408V10.2727Z" fill="black"/>
<path d="M56.7139 11.7144C57.5411 11.7144 58.2117 11.0439 58.2117 10.2167C58.2117 9.38946 57.5411 8.71889 56.7139 8.71889C55.8867 8.71889 55.2162 9.38946 55.2162 10.2167C55.2162 11.0439 55.8867 11.7144 56.7139 11.7144Z" fill="black"/>
<path d="M27.0853 12.7783C26.0339 12.7597 24.9892 12.9485 24.0109 13.3338C23.0325 13.7192 22.1396 14.2935 21.3832 15.024C20.6268 15.7546 20.0217 16.627 19.6025 17.5914C19.1833 18.5559 18.9581 19.5935 18.9399 20.645C18.9803 22.7662 19.8609 24.7846 21.3881 26.257C22.9153 27.7294 24.9644 28.5353 27.0853 28.4978C28.1366 28.5164 29.1813 28.3276 30.1596 27.9422C31.138 27.5569 32.0309 26.9826 32.7873 26.252C33.5437 25.5215 34.1488 24.6491 34.568 23.6846C34.9872 22.7202 35.2124 21.6826 35.2306 20.631C35.1902 18.5099 34.3096 16.4915 32.7824 15.0191C31.2552 13.5467 29.2061 12.7408 27.0853 12.7783ZM27.0853 25.8102C26.0616 25.8241 25.0569 25.5334 24.1988 24.9749C23.3406 24.4165 22.6678 23.6155 22.2658 22.6739C21.8638 21.7322 21.7507 20.6922 21.9408 19.6861C22.131 18.68 22.6159 17.7531 23.3338 17.0231C24.0518 16.2932 24.9705 15.7932 25.9732 15.5866C26.9759 15.3799 28.0174 15.4761 28.9654 15.8627C29.9134 16.2494 30.7251 16.9091 31.2974 17.7581C31.8697 18.6071 32.1767 19.6071 32.1796 20.631C32.1797 21.9889 31.6453 23.2922 30.6918 24.2589C29.7384 25.2255 28.4428 25.7778 27.0853 25.7962V25.8102Z" fill="black"/>
<path d="M14.2094 0.502167V15.3959C13.432 14.5644 12.4911 13.9027 11.4459 13.4523C10.4006 13.0018 9.27351 12.7723 8.13536 12.7783C6.01448 12.7408 3.96543 13.5467 2.43821 15.0191C0.910982 16.4915 0.0304518 18.5099 -0.0100098 20.6311C0.00820949 21.6826 0.233367 22.7202 0.652601 23.6846C1.07184 24.6491 1.67693 25.5215 2.43333 26.2521C3.18973 26.9826 4.08262 27.5569 5.06098 27.9423C6.03935 28.3276 7.08403 28.5164 8.13536 28.4978C9.27454 28.502 10.4023 28.2703 11.4476 27.8174C12.4929 27.3645 13.4332 26.7002 14.2094 25.8662V27.9659H17.1205V0.502167H14.2094ZM8.13536 25.7962C7.11395 25.7962 6.11548 25.4933 5.26621 24.9258C4.41694 24.3582 3.75502 23.5515 3.36414 22.6077C2.97326 21.6639 2.87099 20.6253 3.07026 19.6234C3.26953 18.6214 3.76138 17.7011 4.48363 16.9787C5.20587 16.2563 6.12607 15.7644 7.12785 15.5651C8.12963 15.3658 9.16801 15.4681 10.1117 15.859C11.0553 16.25 11.8619 16.912 12.4293 17.7614C12.9968 18.6108 13.2997 19.6095 13.2997 20.6311C13.2997 21.3094 13.1661 21.981 12.9066 22.6077C12.6471 23.2344 12.2667 23.8038 11.7871 24.2834C11.3075 24.763 10.7382 25.1435 10.1117 25.4031C9.4851 25.6626 8.81355 25.7962 8.13536 25.7962Z" fill="black"/>
<path d="M60.1707 26.4821H59.3728V26.6501H59.7088V27.8539H59.8908V26.6501H60.1707V26.4821Z" fill="black"/>
<path d="M59.8488 27.8119H59.7648V26.6081H59.4288V26.5381H60.1707V26.6081H59.8348L59.8488 27.8119Z" fill="black"/>
<path d="M60.6745 26.4681L60.3805 27.8679H60.5625L60.7584 26.9161L61.1924 27.9939L61.6263 26.9161L61.8223 27.8679H61.9903L61.6683 26.3282L61.1784 27.532L60.6885 26.3282L60.6745 26.4681Z" fill="black"/>
<path d="M61.5703 26.7481L61.1224 27.8539L60.6745 26.7481L60.4505 27.8119H60.3665L60.6465 26.4821L61.1224 27.644L61.5983 26.4821L61.8783 27.8119H61.7943L61.5703 26.7481Z" fill="black"/>
</g>
</g>
<defs>
<clipPath id="clip0_1_728">
<rect width="62" height="28" fill="white" transform="translate(-0.0100098 0.5)"/>
</clipPath>
<clipPath id="clip1_1_728">
<rect width="62" height="27.9957" fill="white" transform="translate(-0.0100098 0.502167)"/>
</clipPath>
</defs>
</svg>
