<svg width="20" height="21" viewBox="0 0 20 21" fill="none" xmlns="http://www.w3.org/2000/svg">
<g clip-path="url(#clip0_1_49)">
<g clip-path="url(#clip1_1_49)">
<path d="M10.0001 5.5C10.7957 5.5 11.5588 5.81607 12.1214 6.37868C12.684 6.94129 13.0001 7.70435 13.0001 8.5C13.0001 9.29565 12.684 10.0587 12.1214 10.6213C11.5588 11.1839 10.7957 11.5 10.0001 11.5C9.20441 11.5 8.44135 11.1839 7.87874 10.6213C7.31613 10.0587 7.00006 9.29565 7.00006 8.5C7.00006 7.70435 7.31613 6.94129 7.87874 6.37868C8.44135 5.81607 9.20441 5.5 10.0001 5.5ZM10.0001 4.5C8.9392 4.5 7.92178 4.92143 7.17163 5.67157C6.42149 6.42172 6.00006 7.43913 6.00006 8.5C6.00006 9.56087 6.42149 10.5783 7.17163 11.3284C7.92178 12.0786 8.9392 12.5 10.0001 12.5C11.0609 12.5 12.0783 12.0786 12.8285 11.3284C13.5786 10.5783 14.0001 9.56087 14.0001 8.5C14.0001 7.43913 13.5786 6.42172 12.8285 5.67157C12.0783 4.92143 11.0609 4.5 10.0001 4.5Z" fill="black"/>
<path d="M12.2401 20.25L12.5801 20.16L13.3001 19.94L13.6101 19.83C13.8631 19.73 14.1131 19.62 14.3601 19.5L14.5701 19.4C14.8743 19.2496 15.1683 19.0792 15.4501 18.89C17.2584 17.7145 18.6383 15.986 19.3841 13.9622C20.1298 11.9384 20.2013 9.72778 19.5881 7.66C18.9752 5.59252 17.7106 3.77845 15.9828 2.48818C14.255 1.19791 12.1565 0.500535 10.0001 0.5C7.84346 0.49973 5.74457 1.1968 4.01661 2.48718C2.28864 3.77757 1.02424 5.5921 0.412069 7.66C-0.200708 9.72781 -0.128906 11.9383 0.616775 13.962C1.36246 15.9856 2.74209 17.7142 4.55007 18.89C4.83207 19.079 5.12607 19.25 5.43007 19.4L5.64007 19.5C5.89307 19.62 6.14307 19.73 6.39007 19.83L6.70007 19.94L7.42007 20.16L7.76007 20.25C8.01007 20.3 8.27007 20.35 8.52007 20.38L8.86007 20.43C9.24807 20.476 9.63907 20.5 10.0301 20.5C10.4011 20.4973 10.7717 20.4739 11.1401 20.43L11.4801 20.38C11.7301 20.35 12.0301 20.3 12.2401 20.25ZM15.8501 17.35L15.4101 17.7L15.1201 17.91C15.0001 18 14.8701 18.07 14.7401 18.15C14.6101 18.23 14.4901 18.32 14.3501 18.39L14.0401 18.55L13.5501 18.78L13.2801 18.88C13.0941 18.96 12.9041 19.03 12.7101 19.09L12.4501 19.16L11.8501 19.32L11.4601 19.38C11.2901 19.38 11.1201 19.44 10.9501 19.45C10.7801 19.46 10.3401 19.5 10.0301 19.5C9.72007 19.5 9.41007 19.5 9.11007 19.45C8.81007 19.4 8.77007 19.4 8.60007 19.38L8.21007 19.32L7.61007 19.16L7.35007 19.09C7.15636 19.0305 6.96608 18.9604 6.78007 18.88L6.51007 18.78L6.03007 18.55L5.72007 18.39C5.58007 18.32 5.46007 18.23 5.33007 18.15C5.20007 18.07 5.07007 18 4.95007 17.91L4.66007 17.7L4.22007 17.35L4.03007 17.17C3.87007 17.019 3.70007 16.869 3.55007 16.709V16.659C5.38952 15.2006 7.68347 14.4359 10.0301 14.499C12.4005 14.4193 14.722 15.1849 16.5801 16.659L16.5301 16.709C16.3801 16.869 16.2101 17.019 16.0501 17.169L15.8501 17.35ZM10.0301 1.494C11.2797 1.49511 12.5155 1.75652 13.6585 2.26157C14.8016 2.76661 15.8269 3.50422 16.6692 4.42739C17.5115 5.35057 18.1522 6.43907 18.5506 7.62354C18.949 8.808 19.0963 10.0625 18.9831 11.307C18.8326 12.9709 18.2222 14.5602 17.2201 15.897C15.1835 14.2703 12.6354 13.4197 10.0301 13.497C7.42473 13.4197 4.87662 14.2703 2.84007 15.897C1.839 14.5602 1.22947 12.9712 1.07962 11.3079C0.929771 9.64448 1.24551 7.9722 1.99153 6.47797C2.73756 4.98374 3.88447 3.72645 5.30406 2.84664C6.72365 1.96684 8.35996 1.4992 10.0301 1.496V1.494Z" fill="black"/>
</g>
</g>
<defs>
<clipPath id="clip0_1_49">
<rect width="20" height="20" fill="white" transform="translate(6.10352e-05 0.5)"/>
</clipPath>
<clipPath id="clip1_1_49">
<rect width="20" height="20" fill="white" transform="translate(6.10352e-05 0.5)"/>
</clipPath>
</defs>
</svg>
