<svg width="20" height="21" viewBox="0 0 20 21" fill="none" xmlns="http://www.w3.org/2000/svg">
<g clip-path="url(#clip0_1_58)">
<path d="M14.36 1.5C13.537 1.49433 12.7224 1.66447 11.9704 1.99903C11.2185 2.3336 10.5467 2.82488 10 3.44C9.45368 2.82437 8.78196 2.33274 8.02996 1.99814C7.27795 1.66353 6.46306 1.49368 5.64 1.5C4.18791 1.46226 2.77985 2.0005 1.72319 2.99721C0.666517 3.99393 0.0470487 5.36818 0 6.82C0 9.12 1.45 11.82 4.32 14.72C5.95187 16.368 7.72164 17.8735 9.61 19.22L10 19.5L10.4 19.22C12.2874 17.8723 14.0571 16.3669 15.69 14.72C18.55 11.77 20 9.12 20 6.82C19.9556 5.3673 19.3369 3.99149 18.2796 2.99422C17.2224 1.99696 15.8128 1.45961 14.36 1.5ZM14.71 13.87C13.2508 15.3498 11.6758 16.7108 10 17.94C8.32484 16.7137 6.74987 15.3561 5.29 13.88C2.69 11.21 1.29 8.77 1.29 6.82C1.30679 6.26619 1.43274 5.72113 1.66063 5.21609C1.88851 4.71105 2.21384 4.25596 2.61797 3.87692C3.0221 3.49787 3.49707 3.20233 4.01566 3.00723C4.53425 2.81213 5.08624 2.72132 5.64 2.74C6.39906 2.73311 7.14682 2.92406 7.80963 3.29405C8.47245 3.66403 9.02746 4.20029 9.42 4.85L10 5.85L10.58 4.85C10.9733 4.20097 11.5285 3.66525 12.1911 3.29536C12.8537 2.92547 13.6011 2.7341 14.36 2.74C15.4733 2.71038 16.553 3.1231 17.3626 3.88779C18.1723 4.65248 18.646 5.70683 18.68 6.82C18.68 8.77 17.31 11.21 14.71 13.87Z" fill="black"/>
</g>
<defs>
<clipPath id="clip0_1_58">
<rect width="20" height="20" fill="white" transform="translate(0 0.5)"/>
</clipPath>
</defs>
</svg>
