<svg width="28" height="21" viewBox="0 0 28 21" fill="none" xmlns="http://www.w3.org/2000/svg">
<g clip-path="url(#clip0_1_704)">
<g clip-path="url(#clip1_1_704)">
<path d="M8.2498 8.39939V0.583501H5.90104V7.43954H5.89057C5.89057 8.82884 5.00134 8.63459 4.77665 8.66506L5.50213 10.6876C6.33995 10.8009 7.18729 10.5752 7.62714 10.2181C7.86231 9.99342 8.28122 9.61538 8.2498 8.39939ZM3.79602 17.2265V9.41065H1.45678V16.2667H1.44726C1.44726 17.656 0.568505 17.4722 0.333344 17.5027L1.05882 19.5262C1.89664 19.6481 2.74398 19.4129 3.18384 19.0558C3.41805 18.831 3.83696 18.4425 3.79602 17.2275V17.2265ZM14.9724 6.70347V2.53462H12.9083V6.70347C12.8369 6.97961 12.5103 7.37765 12.1828 7.39859C11.5706 7.43859 11.5392 7.11293 11.4878 6.69395V2.53366H9.39514V6.67205C9.39514 6.67205 9.39514 6.68157 9.38562 6.69204C9.34468 6.96819 9.38562 7.83662 9.39514 7.97945C9.55889 9.22687 11.0089 9.31829 11.2041 9.31829C12.5008 9.34876 12.9606 8.65363 13.1034 8.48985C13.1749 8.88883 13.6242 9.1545 13.7061 9.21545C14.0736 9.44017 14.7381 9.35828 14.9828 9.31829L15.5141 7.43764C14.9828 7.42811 14.9724 6.8463 14.9724 6.70347ZM25.3099 4.00581V2.48415H23.6857L23.6647 0.50161L23.103 0.511132L20.9685 2.83076L20.9885 4.01628L21.5816 4.00676V7.67379C21.8063 9.26782 23.3896 9.34019 23.7466 9.34019C24.7377 9.29829 25.1157 8.90978 25.2994 8.726V7.0815C24.9834 7.35765 24.4521 7.52048 24.2884 7.53095C23.839 7.53095 23.7571 7.3367 23.7171 6.99961L23.6962 3.99629H25.3099V4.00581ZM19.9879 2.83076C19.926 2.73934 19.211 2.38131 18.4655 2.36131C18.0771 2.34036 16.2995 2.53462 16.1463 4.38384C16.1977 4.81234 16.1463 5.39511 17.403 6.24354C17.5258 6.33591 18.5674 7.01009 18.5169 7.32623C18.5064 7.40812 18.2408 7.8271 17.4744 7.53095C17.3116 7.47001 16.5347 7.0815 16.29 6.85678L16.2691 8.62411C16.4224 8.73647 17.0155 9.25734 18.2408 9.40018C18.3741 9.39066 19.9469 9.47255 20.5496 8.02135C20.6514 7.64332 20.9066 6.65205 19.7022 5.73315C19.4671 5.53889 17.9752 5.00755 18.3636 4.27148C18.4969 4.0877 18.8844 3.75061 19.9774 4.51715V2.83171H19.9869L19.9879 2.83076ZM27.1179 11.4332C27.057 11.3522 26.3724 10.9847 25.4223 10.9533C25.0443 10.9437 23.4201 11.2808 23.2773 12.9767C23.3277 13.4157 23.2773 13.988 24.534 14.8364C24.6559 14.9279 25.8612 15.643 25.6365 16.0115C25.586 16.0724 25.2994 16.3991 24.6054 16.1239C24.7273 16.2048 23.5733 15.6639 23.3277 15.4383L23.3182 17.217C23.4705 17.3189 24.156 17.8807 25.3918 18.014C25.5137 18.0036 27.1074 18.0854 27.7101 16.6447C27.8339 16.1638 28.0471 15.4287 27.057 14.4994C26.8113 14.1518 25.0643 13.6205 25.5346 12.8644C25.6679 12.6806 26.0354 12.3635 27.1284 13.1301V11.4332H27.1189H27.1179ZM22.4804 12.9758C22.4899 12.8539 22.6327 11.0761 20.7847 11.0866C20.58 11.0866 19.4157 11.0771 19.0167 12.0769V11.1989H17.046V17.8607H19.0167V13.8756C19.0891 13.4262 19.3747 12.9872 19.7736 12.9872C19.9574 12.9872 20.4068 13.1205 20.4163 13.6509V17.8598H22.4804V12.9758ZM6.7998 13.9061H8.35167C8.35167 13.7833 8.38309 12.5473 7.57573 12.4863C7.41293 12.5063 6.78932 12.6197 6.7998 13.9061ZM8.18982 16.3886C9.30279 16.3486 9.97685 15.8477 10.2625 15.6839V17.2265C9.6084 17.6455 8.35262 18.1054 7.4434 18.0445C5.95055 17.9321 5.32885 16.8894 5.09369 16.4609C4.10354 14.4784 5.1451 12.6492 5.24602 12.4349C5.47608 12.005 5.8156 11.6435 6.23021 11.387C6.64483 11.1305 7.11983 10.9881 7.60715 10.9742C8.65919 10.9837 9.30183 11.2399 9.83404 11.955C10.5386 12.8749 10.4158 14.745 10.4053 14.9069H6.81979C7.04448 16.4495 8.02606 16.3791 8.18982 16.3886ZM13.1948 15.643C12.8473 15.9096 12.8578 16.2048 12.8578 16.2667C12.8883 16.7161 13.2767 16.7666 13.3377 16.7876C13.6233 16.7971 13.7566 16.6857 13.8384 16.6352C13.8689 15.3468 13.8175 15.2649 13.8175 15.2649C13.7461 15.2859 13.1948 15.643 13.1948 15.643ZM11.4269 11.9655C11.6515 11.7093 12.398 11.0656 13.6033 11.0561C13.9098 11.0456 15.555 11.1066 15.8911 12.7111L15.9006 16.021C15.9216 16.2048 16.0549 16.42 16.4024 16.4809L15.932 18.014C15.8302 18.014 14.7572 18.0854 14.502 17.4417C14.4002 17.5027 13.8689 18.0236 12.6741 18.034C12.377 18.014 11.0184 17.9731 10.947 16.3076C10.9984 15.9601 10.9061 15.1631 11.999 14.7031C12.0914 14.6527 13.2148 14.2023 13.7975 14.1004C13.8175 14.0185 13.9917 12.8844 13.3167 12.8644C13.1644 12.8644 12.5198 12.8234 11.3964 13.8357L11.4269 11.9655Z" fill="black"/>
</g>
</g>
<defs>
<clipPath id="clip0_1_704">
<rect width="27.61" height="20" fill="white" transform="translate(0.333344 0.5)"/>
</clipPath>
<clipPath id="clip1_1_704">
<rect width="27.61" height="19.9968" fill="white" transform="translate(0.333344 0.50161)"/>
</clipPath>
</defs>
</svg>
