<svg width="20" height="21" viewBox="0 0 20 21" fill="none" xmlns="http://www.w3.org/2000/svg">
<g clip-path="url(#clip0_1_34)">
<g clip-path="url(#clip1_1_34)">
<path d="M8.5 17.5C6.81886 17.5 5.17547 17.0015 3.77766 16.0675C2.37984 15.1335 1.29037 13.806 0.647028 12.2528C0.00368291 10.6996 -0.164645 8.99057 0.163329 7.34174C0.491303 5.6929 1.30085 4.17834 2.4896 2.9896C3.67834 1.80085 5.1929 0.991303 6.84174 0.663329C8.49057 0.335355 10.1996 0.503683 11.7528 1.14703C13.306 1.79037 14.6335 2.87984 15.5675 4.27766C16.5015 5.67547 17 7.31886 17 9C16.9974 11.2535 16.101 13.414 14.5075 15.0075C12.914 16.601 10.7535 17.4974 8.5 17.5ZM8.5 1.95C7.10565 1.95 5.7426 2.36348 4.58323 3.13814C3.42387 3.91281 2.52025 5.01387 1.98665 6.30209C1.45306 7.5903 1.31344 9.00782 1.58547 10.3754C1.85749 11.743 2.52894 12.9991 3.5149 13.9851C4.50086 14.9711 5.75705 15.6425 7.12462 15.9145C8.49218 16.1866 9.9097 16.047 11.1979 15.5134C12.4861 14.9798 13.5872 14.0761 14.3619 12.9168C15.1365 11.7574 15.55 10.3944 15.55 9C15.5474 7.13104 14.8037 5.33938 13.4822 4.01782C12.1606 2.69626 10.369 1.95265 8.5 1.95Z" fill="black"/>
<path d="M19.25 20.5C19.0511 20.4998 18.8605 20.4207 18.72 20.28L13.86 15.42C13.7275 15.2778 13.6554 15.0898 13.6588 14.8955C13.6622 14.7012 13.7409 14.5158 13.8784 14.3784C14.0158 14.241 14.2012 14.1623 14.3955 14.1588C14.5898 14.1554 14.7778 14.2275 14.92 14.36L19.78 19.22C19.8847 19.3249 19.9561 19.4585 19.9849 19.6039C20.0138 19.7493 19.999 19.9 19.9423 20.0369C19.8856 20.1739 19.7895 20.291 19.6663 20.3734C19.5431 20.4558 19.3982 20.4999 19.25 20.5Z" fill="black"/>
</g>
</g>
<defs>
<clipPath id="clip0_1_34">
<rect width="20" height="20" fill="white" transform="translate(0 0.5)"/>
</clipPath>
<clipPath id="clip1_1_34">
<rect width="20" height="20" fill="white" transform="translate(0 0.5)"/>
</clipPath>
</defs>
</svg>
