<svg width="25" height="21" viewBox="0 0 25 21" fill="none" xmlns="http://www.w3.org/2000/svg">
<g clip-path="url(#clip0_1_712)">
<g clip-path="url(#clip1_1_712)">
<path d="M6.34167 15.714C6.34167 16.794 6.04667 18.562 3.53967 18.562C2.13867 18.556 0.776672 17.796 0.776672 15.957V15.23H2.44667V15.61C2.44667 16.421 2.64867 17.01 3.51367 17.01C4.48867 17.01 4.48867 16.225 4.48867 15.636V9.966H6.34167V15.714ZM10.8647 15.387C10.5837 15.636 9.99467 15.649 9.47667 15.741C8.95967 15.845 8.48867 16.022 8.48867 16.637C8.48867 17.259 8.97267 17.417 9.50967 17.417C10.8127 17.417 10.8647 16.382 10.8647 16.015V15.387ZM7.00867 14.15C7.10067 12.585 8.50167 12.114 9.86967 12.114C11.0807 12.114 12.5407 12.382 12.5407 13.842V17.004C12.5407 17.561 12.6007 18.11 12.7507 18.359H11.0547C10.9922 18.168 10.9526 17.9703 10.9367 17.77C10.4067 18.32 9.63467 18.523 8.88767 18.523C7.73567 18.523 6.81967 17.947 6.81967 16.703C6.81967 15.328 7.85367 14.994 8.88767 14.857C9.90967 14.707 10.8647 14.739 10.8647 14.058C10.8647 13.338 10.3747 13.233 9.78467 13.233C9.14967 13.233 8.73767 13.495 8.67867 14.15H7.00867ZM16.3377 19.125C15.9717 20.101 15.3957 20.5 14.2427 20.5C13.9027 20.5 13.5627 20.474 13.2227 20.441V19.066C13.5357 19.093 13.8697 19.138 14.1977 19.126C14.7737 19.066 14.9637 18.464 14.7737 17.986L12.6327 12.284H14.4197L15.7947 16.448H15.8207L17.1507 12.284H18.8787L16.3387 19.125H16.3377ZM20.2987 16.382C20.3117 17.109 20.9207 17.403 21.5817 17.403C22.0667 17.403 22.6747 17.213 22.6747 16.624C22.6747 16.12 21.9817 15.944 20.7837 15.682C19.8207 15.472 18.8517 15.132 18.8517 14.058C18.8517 12.507 20.1937 12.108 21.4967 12.108C22.8267 12.108 24.0497 12.552 24.1807 14.052H22.5907C22.5447 13.403 22.0467 13.227 21.4507 13.227C21.0777 13.227 20.5207 13.299 20.5207 13.79C20.5207 14.392 21.4637 14.47 22.4137 14.693C23.3887 14.916 24.3437 15.269 24.3437 16.395C24.3437 17.993 22.9567 18.51 21.5687 18.51C20.1547 18.51 18.7797 17.98 18.7087 16.37H20.2987V16.382ZM6.34167 6.255C6.34167 7.335 6.04667 9.102 3.53967 9.102C2.13867 9.096 0.776672 8.336 0.776672 6.497V5.77H2.44667V6.15C2.44667 6.962 2.64867 7.55 3.51367 7.55C4.48867 7.55 4.48867 6.765 4.48867 6.176V0.5H6.34167V6.255ZM10.8647 5.92C10.5837 6.17 9.99467 6.176 9.47667 6.274C8.95967 6.379 8.48867 6.556 8.48867 7.164C8.48867 7.786 8.97267 7.944 9.50967 7.944C10.8127 7.944 10.8647 6.909 10.8647 6.543V5.92ZM7.00867 4.69C7.10067 3.125 8.50167 2.654 9.86967 2.654C11.0807 2.654 12.5407 2.922 12.5407 4.382V7.544C12.5407 8.101 12.6007 8.651 12.7507 8.899H11.0547C10.9922 8.70802 10.9526 8.5103 10.9367 8.31C10.4067 8.86 9.63467 9.063 8.88767 9.063C7.73567 9.063 6.81967 8.487 6.81967 7.243C6.81967 5.868 7.85367 5.534 8.88767 5.397C9.90967 5.247 10.8647 5.279 10.8647 4.598C10.8647 3.878 10.3747 3.773 9.78467 3.773C9.14967 3.773 8.73767 4.035 8.67867 4.69H7.00867ZM16.3377 9.665C15.9717 10.641 15.3957 11.04 14.2427 11.04C13.9027 11.04 13.5627 11.014 13.2227 10.981V9.606C13.5357 9.633 13.8697 9.678 14.1977 9.666C14.7737 9.606 14.9637 9.004 14.7737 8.526L12.6327 2.824H14.4197L15.7947 6.988H15.8207L17.1437 2.818H18.8717L16.3377 9.665Z" fill="black"/>
</g>
</g>
<defs>
<clipPath id="clip0_1_712">
<rect width="24" height="20" fill="white" transform="translate(0.776672 0.5)"/>
</clipPath>
<clipPath id="clip1_1_712">
<rect width="24" height="20" fill="white" transform="translate(0.776672 0.5)"/>
</clipPath>
</defs>
</svg>
